<?xml version="1.0" encoding="utf-8"?>
<!-- Generator: Adobe Illustrator 15.1.0, SVG Export Plug-In . SVG Version: 6.00 Build 0)  -->
<!DOCTYPE svg PUBLIC "-//W3C//DTD SVG 1.1//EN" "http://www.w3.org/Graphics/SVG/1.1/DTD/svg11.dtd">
<svg version="1.1" id="Layer_1" xmlns="http://www.w3.org/2000/svg" xmlns:xlink="http://www.w3.org/1999/xlink" x="0px" y="0px"
	 width="267.363px" height="21.265px" viewBox="0 0 267.363 21.265" enable-background="new 0 0 267.363 21.265"
	 xml:space="preserve">
<g>
	<path fill="#FFFFFF" d="M1.251,1.169c1.193-0.198,2.757-0.37,4.743-0.37c2.445,0,4.233,0.57,5.372,1.592
		c1.022,0.909,1.675,2.302,1.675,4.004c0,1.734-0.513,3.097-1.479,4.092c-1.335,1.393-3.437,2.103-5.85,2.103
		c-0.74,0-1.423-0.03-1.989-0.172v7.67H1.251V1.169z M3.724,10.4C4.262,10.544,4.944,10.6,5.769,10.6
		c2.983,0,4.802-1.479,4.802-4.062c0-2.556-1.818-3.779-4.519-3.779c-1.079,0-1.903,0.086-2.328,0.198V10.4z"/>
	<path fill="#FFFFFF" d="M26.256,11.11h-7.413v6.902h8.294v2.074H16.344V0.94h10.369v2.074h-7.87v6.051h7.413V11.11z"/>
	<path fill="#FFFFFF" d="M33.452,14.064l-1.989,6.022h-2.555L35.441,0.94h2.954l6.533,19.146h-2.643l-2.045-6.022H33.452z
		 M39.758,12.133l-1.9-5.51c-0.429-1.251-0.711-2.387-0.996-3.494h-0.057c-0.285,1.107-0.567,2.301-0.966,3.464l-1.875,5.54H39.758z
		"/>
	<path fill="#FFFFFF" d="M47.749,1.197c1.252-0.227,3.069-0.398,4.744-0.398c2.643,0,4.376,0.512,5.54,1.562
		c0.936,0.854,1.505,2.161,1.505,3.666c0,2.501-1.591,4.175-3.579,4.857v0.086c1.448,0.511,2.33,1.873,2.783,3.862
		c0.624,2.67,1.081,4.518,1.479,5.255h-2.558c-0.313-0.568-0.738-2.188-1.25-4.573c-0.566-2.641-1.619-3.635-3.862-3.721h-2.328
		v8.294h-2.474V1.197z M50.223,9.917h2.526c2.641,0,4.318-1.447,4.318-3.636c0-2.471-1.79-3.551-4.403-3.551
		c-1.194,0-2.018,0.086-2.441,0.199V9.917z"/>
	<path fill="#FFFFFF" d="M62.729,17.076c1.106,0.71,2.698,1.251,4.403,1.251c2.528,0,4.006-1.337,4.006-3.269
		c0-1.76-1.024-2.813-3.608-3.777c-3.125-1.135-5.057-2.784-5.057-5.453c0-2.983,2.47-5.199,6.191-5.199
		c1.933,0,3.382,0.455,4.206,0.938l-0.684,2.017c-0.597-0.37-1.874-0.909-3.607-0.909c-2.612,0-3.608,1.562-3.608,2.868
		c0,1.79,1.166,2.669,3.808,3.694c3.238,1.249,4.857,2.81,4.857,5.622c0,2.956-2.157,5.54-6.676,5.54
		c-1.846,0-3.862-0.569-4.885-1.249L62.729,17.076z"/>
	<path fill="#FFFFFF" d="M93.414,10.314c0,6.562-4.005,10.085-8.892,10.085c-5.084,0-8.606-3.948-8.606-9.742
		c0-6.08,3.75-10.057,8.864-10.057C90.035,0.601,93.414,4.606,93.414,10.314z M78.53,10.6c0,4.119,2.215,7.783,6.136,7.783
		c3.92,0,6.138-3.609,6.138-7.954c0-3.836-1.99-7.812-6.109-7.812C80.574,2.617,78.53,6.424,78.53,10.6z"/>
	<path fill="#FFFFFF" d="M96.634,20.087V0.94h2.728l6.108,9.687c1.392,2.246,2.528,4.263,3.409,6.222l0.083-0.027
		c-0.228-2.559-0.283-4.887-0.283-7.869V0.94h2.33v19.146h-2.5l-6.079-9.715c-1.335-2.13-2.613-4.318-3.55-6.39L98.795,4.01
		c0.139,2.414,0.167,4.716,0.167,7.896v8.181H96.634z"/>
	<path fill="#FFFFFF" d="M121.076,1.197c1.335-0.227,3.21-0.398,5.85-0.398c2.673,0,4.576,0.512,5.853,1.534
		c1.251,0.967,2.047,2.559,2.047,4.432c0,1.876-0.598,3.495-1.764,4.545c-1.474,1.364-3.663,2.017-6.217,2.017
		c-0.569,0-1.082-0.027-1.479-0.112v6.873h-4.289V1.197z M125.365,9.889c0.369,0.086,0.796,0.113,1.448,0.113
		c2.302,0,3.722-1.162,3.722-3.095c0-1.763-1.221-2.812-3.41-2.812c-0.85,0-1.447,0.055-1.76,0.141V9.889z"/>
	<path fill="#FFFFFF" d="M155.117,10.314c0,6.308-3.778,10.085-9.402,10.085c-5.652,0-9.005-4.288-9.005-9.772
		c0-5.735,3.691-10.026,9.316-10.026C151.905,0.601,155.117,5.005,155.117,10.314z M141.283,10.544c0,3.777,1.762,6.418,4.658,6.418
		c2.925,0,4.604-2.782,4.604-6.503c0-3.468-1.619-6.421-4.604-6.421C142.987,4.038,141.283,6.822,141.283,10.544z"/>
	<path fill="#FFFFFF" d="M157.968,1.197c1.391-0.227,3.438-0.398,5.768-0.398c2.84,0,4.826,0.426,6.192,1.506
		c1.163,0.909,1.79,2.272,1.79,4.034c0,2.414-1.732,4.09-3.382,4.687v0.085c1.334,0.539,2.075,1.79,2.558,3.551
		c0.595,2.188,1.164,4.688,1.535,5.426h-4.434c-0.285-0.568-0.769-2.102-1.307-4.459c-0.538-2.414-1.365-3.039-3.152-3.069h-1.279
		v7.528h-4.289V1.197z M162.257,9.436h1.706c2.157,0,3.436-1.079,3.436-2.757c0-1.731-1.193-2.641-3.183-2.641
		c-1.05,0-1.646,0.058-1.959,0.141V9.436z"/>
	<path fill="#FFFFFF" d="M178.543,4.577h-5.169V0.94h14.715v3.637h-5.228v15.51h-4.318V4.577z"/>
	<path fill="#FFFFFF" d="M190.425,0.94h11.673v3.553h-7.355v4.374h6.875v3.522h-6.875v7.697h-4.317V0.94z"/>
	<path fill="#FFFFFF" d="M222.901,10.314c0,6.308-3.777,10.085-9.402,10.085c-5.653,0-9.005-4.288-9.005-9.772
		c0-5.735,3.691-10.026,9.317-10.026C219.691,0.601,222.901,5.005,222.901,10.314z M209.066,10.544c0,3.777,1.764,6.418,4.659,6.418
		c2.926,0,4.603-2.782,4.603-6.503c0-3.468-1.618-6.421-4.603-6.421C210.772,4.038,209.066,6.822,209.066,10.544z"/>
	<path fill="#FFFFFF" d="M225.783,0.94h4.318v15.511h7.611v3.636h-11.93V0.94z"/>
	<path fill="#FFFFFF" d="M244.624,0.94v19.146h-4.317V0.94H244.624z"/>
	<path fill="#FFFFFF" d="M265.903,10.314c0,6.308-3.776,10.085-9.402,10.085c-5.651,0-9.004-4.288-9.004-9.772
		c0-5.735,3.691-10.026,9.317-10.026C262.692,0.601,265.903,5.005,265.903,10.314z M252.07,10.544c0,3.777,1.763,6.418,4.658,6.418
		c2.925,0,4.602-2.782,4.602-6.503c0-3.468-1.619-6.421-4.602-6.421C253.775,4.038,252.07,6.822,252.07,10.544z"/>
</g>
</svg>
